#!OML:ASF E:\Style4\Style4.ASF
:FULLY-SPECIFIED
:DEGREES
2288
root 0.373712 16.6625 0.504116 -9.21774 3.94702 3.76703
lowerback 8.65307 3.29111 -1.40168
upperback 6.6247 4.29671 0.815975
thorax 1.86347 2.10056 1.32679
lowerneck 2.5171 -3.40255 -6.24944
upperneck 8.81376 -4.74981 3.04963
head 2.63424 -2.47622 1.99275
rclavicle -2.87244e-014 2.94201e-014
rhumerus -9.68835 10.9543 -85.4374
rradius 129.778
rwrist 22.2743
rhand 38.938 -3.95346
rfingers 7.12502
rthumb 61.5092 -16.0454
lclavicle -2.87244e-014 2.94201e-014
lhumerus -7.59017 -12.788 85.2889
lradius 132.886
lwrist -13.7059
lhand 23.9082 43.0697
lfingers 7.12502
lthumb 48.1569 65.209
rfemur -7.19529 -3.63658 12.7896
rtibia 51.9264
rfoot -30.5 -20.4044
rtoes -17.4777
lfemur -7.53252 -1.14351 -24.1813
ltibia 49.342
lfoot -31.13 9.70737
ltoes -16.5022
2289
root 0.373784 16.6637 0.509346 -9.24698 3.93116 3.79222
lowerback 8.67305 3.29599 -1.42587
upperback 6.58942 4.30125 0.791544
thorax 1.81566 2.10307 1.31213
lowerneck 2.57252 -3.39936 -6.25738
upperneck 8.80796 -4.75272 3.10388
head 2.62461 -2.47704 2.01306
rclavicle -3.17062e-014 2.94201e-014
rhumerus -9.79432 10.9143 -85.5259
rradius 129.808
rwrist 21.9938
rhand 39.2234 -4.06641
rfingers 7.12502
rthumb 61.7484 -15.8701
lclavicle -3.17062e-014 2.94201e-014
lhumerus -7.77265 -12.8087 85.3218
lradius 132.84
lwrist -13.6088
lhand 23.8133 43.1005
lfingers 7.12502
lthumb 48.0694 65.2809
rfemur -7.14095 -3.63075 12.7558
rtibia 51.9137
rfoot -30.5342 -20.4056
rtoes -17.5052
lfemur -7.45993 -1.13997 -24.2124
ltibia 49.3042
lfoot -31.1417 9.71663
ltoes -16.5332
2290
root 0.373763 16.6649 0.513198 -9.27494 3.9039 3.73204
lowerback 8.57636 3.30316 -1.39376
upperback 6.62159 4.31445 0.821254
thorax 1.90177 2.10929 1.33111
lowerneck 2.6211 -3.40756 -6.2838
upperneck 8.75566 -4.76923 3.14801
head 2.60161 -2.48498 2.033
rclavicle -2.10712e-014 -4.77083e-015
rhumerus -9.77198 10.8622 -85.5081
rradius 129.823
rwrist 21.6595
rhand 39.4621 -4.17421
rfingers 7.12502
rthumb 61.9478 -15.733
lclavicle -2.10712e-014 -4.77083e-015
lhumerus -7.93881 -12.8162 85.427
lradius 132.781
lwrist -13.5472
lhand 23.6682 43.0669
lfingers 7.12502
lthumb 47.9357 65.3097
rfemur -7.11596 -3.59172 12.8327
rtibia 51.8822
rfoot -30.4911 -20.5478
rtoes -17.8409
lfemur -7.4014 -1.15041 -24.1417
ltibia 49.2673
lfoot -31.1852 9.61751
ltoes -16.2879
2291
root 0.3738 16.6641 0.516332 -9.29639 3.85379 3.74428
lowerback 8.64667 3.30518 -1.32547
upperback 6.55553 4.32026 0.742745
thorax 1.80482 2.11708 1.20525
lowerneck 2.68124 -3.39386 -6.23131
upperneck 8.73924 -4.75927 3.21845
head 2.58526 -2.47715 2.0482
rclavicle -2.73329e-014 -1.11319e-014
rhumerus -9.89875 10.8761 -85.6792
rradius 129.847
rwrist 21.6709
rhand 39.5154 -4.18333
rfingers 7.12502
rthumb 61.9923 -15.6868
lclavicle -2.73329e-014 -1.11319e-014
lhumerus -8.2326 -12.8342 85.4204
lradius 132.753
lwrist -13.5573
lhand 23.6296 43.0396
lfingers 7.12502
lthumb 47.9001 65.2989
rfemur -7.10439 -3.55857 12.8232
rtibia 51.8399
rfoot -30.3019 -20.7693
rtoes -18.4868
lfemur -7.33894 -1.1413 -24.1505
ltibia 49.2362
lfoot -31.2449 9.47768
ltoes -15.6983
2292
root 0.373959 16.6661 0.522146 -9.3114 3.78091 3.7322
lowerback 8.47384 3.33451 -1.35446
upperback 6.63755 4.36051 0.781491
thorax 1.97899 2.13375 1.27221
lowerneck 2.61545 -3.41591 -6.26978
upperneck 8.67819 -4.78587 3.23803
head 2.58014 -2.4902 2.06026
rclavicle -3.60794e-014 3.18055e-015
rhumerus -9.82037 10.937 -85.6236
rradius 129.88
rwrist 21.5706
rhand 39.5972 -4.44583
rfingers 7.12502
rthumb 62.0605 -15.8642
lclavicle -3.60794e-014 3.18055e-015
lhumerus -8.25885 -12.7912 85.5461
lradius 132.678
lwrist -13.626
lhand 23.6541 42.9342
lfingers 7.12502
lthumb 47.9227 65.1831
rfemur -7.06293 -3.49605 12.8509
rtibia 51.7956
rfoot -30.2872 -20.7492
rtoes -18.5715
lfemur -7.28442 -1.08625 -24.1298
ltibia 49.2066
lfoot -31.2494 9.51598
ltoes -15.7808
2293
root 0.375178 16.668 0.526684 -9.30599 3.71797 3.68255
lowerback 8.5387 3.32532 -1.28822
upperback 6.54411 4.35062 0.761254
thorax 1.85227 2.1327 1.20762
lowerneck 2.62806 -3.42638 -6.23446
upperneck 8.70325 -4.80071 3.23293
head 2.58565 -2.49699 2.05202
rclavicle 1.77912e-014 1.35174e-014
rhumerus -10.014 11.0234 -85.7615
rradius 129.916
rwrist 21.4743
rhand 39.5282 -4.51275
rfingers 7.12502
rthumb 62.0029 -16.003
lclavicle 1.77912e-014 1.35174e-014
lhumerus -8.52196 -12.7591 85.5701
lradius 132.647
lwrist -13.6386
lhand 23.5839 42.9618
lfingers 7.12502
lthumb 47.8579 65.2406
rfemur -7.04467 -3.48308 12.9079
rtibia 51.7545
rfoot -30.2306 -20.7983
rtoes -18.8128
lfemur -7.2538 -1.04078 -24.0711
ltibia 49.182
lfoot -31.2552 9.62019
ltoes -16.0211
2294
root 0.375808 16.669 0.528837 -9.31994 3.65028 3.70021
lowerback 8.501 3.33016 -1.31629
upperback 6.54752 4.3559 0.750379
thorax 1.87517 2.13437 1.21409
lowerneck 2.61004 -3.45499 -6.21405
upperneck 8.69531 -4.83744 3.22486
head 2.58722 -2.51466 2.04462
rclavicle -5.19822e-014 9.54166e-015
rhumerus -10.041 11.0836 -85.785
rradius 129.935
rwrist 21.3566
rhand 39.274 -4.42734
rfingers 7.12502
rthumb 61.7907 -16.1794
lclavicle -5.19822e-014 9.54166e-015
lhumerus -8.64868 -12.6951 85.6221
lradius 132.615
lwrist -13.5889
lhand 23.5902 43.1041
lfingers 7.12502
lthumb 47.8637 65.3803
rfemur -7.02992 -3.43758 12.8894
rtibia 51.7384
rfoot -30.2131 -20.7617
rtoes -18.736
lfemur -7.21987 -1.00812 -24.0894
ltibia 49.1636
lfoot -31.2757 9.60631
ltoes -15.7974
